<?xml version="1.0" encoding="UTF-8" standalone="no"?>
<svg
   xmlns:dc="http://purl.org/dc/elements/1.1/"
   xmlns:cc="http://creativecommons.org/ns#"
   xmlns:rdf="http://www.w3.org/1999/02/22-rdf-syntax-ns#"
   xmlns:svg="http://www.w3.org/2000/svg"
   xmlns="http://www.w3.org/2000/svg"
   viewBox="0 0 481.22668 126.25333"
   height="126.25333"
   width="481.22668"
   xml:space="preserve"
   id="svg2"
   version="1.1"><metadata
     id="metadata8"><rdf:RDF><cc:Work
         rdf:about=""><dc:format>image/svg+xml</dc:format><dc:type
           rdf:resource="http://purl.org/dc/dcmitype/StillImage" /></cc:Work></rdf:RDF></metadata><defs
     id="defs6" /><g
     transform="matrix(1.3333333,0,0,-1.3333333,0,126.25333)"
     id="g10"><g
       transform="scale(0.1)"
       id="g12"><path
         id="path14"
         style="fill:#231f20;fill-opacity:1;fill-rule:nonzero;stroke:none"
         d="M 0,548.488 V 927.902 H 74.4063 V 548.488 H 0" /><path
         id="path16"
         style="fill:#231f20;fill-opacity:1;fill-rule:nonzero;stroke:none"
         d="m 183.574,787.531 h 1.055 c 17.945,24.395 52.223,38.477 83.375,38.477 33.203,0 61.68,-13.559 77.539,-38.477 22.187,21.66 56.465,37.93 87.617,38.477 59.551,0.547 90.742,-36.875 91.797,-99.184 V 549.031 h -70.215 v 164.77 c 0,31.426 -10.547,63.941 -45.332,63.941 -33.769,0 -54.863,-20.562 -54.863,-67.711 V 548.488 h -70.195 v 165.313 c 0,37.929 -16.348,63.941 -46.426,63.941 -33.262,0 -53.805,-23.277 -53.805,-69.351 V 548.488 h -70.195 v 271.016 h 69.648 v -31.973" /><path
         id="path18"
         style="fill:#231f20;fill-opacity:1;fill-rule:nonzero;stroke:none"
         d="M 633.883,819.504 H 563.746 V 412.961 h 70.137 v 169.141 c 19.551,-23.887 46.933,-40.098 79.101,-40.098 75.469,0 122.954,76.387 122.954,147.945 0,59.629 -33.735,136.059 -116.567,136.059 -31.66,0 -65.937,-16.27 -84.433,-43.891 h -1.055 z m 67.539,-36.875 c 40.058,0 60.117,-46.621 60.117,-93.223 0,-47.695 -15.801,-104.062 -62.734,-104.062 -38.008,0 -64.922,38.476 -64.922,95.39 0,62.34 23.222,101.895 67.539,101.895" /><path
         id="path20"
         style="fill:#231f20;fill-opacity:1;fill-rule:nonzero;stroke:none"
         d="m 1106.41,677.512 c 5.21,80.742 -29.09,148.496 -111.371,148.496 -75.449,0 -134.531,-53.125 -134.531,-136.602 0,-89.457 59.59,-147.402 139.277,-147.402 30.055,0 67.515,8.672 103.395,30.332 l -20.05,37.93 c -17.39,-12.446 -44.87,-21.7 -70.69,-21.7 -43.788,0 -78.592,37.965 -76.991,88.946 z m -169.926,39.019 c -0.527,36.25 17.383,69.36 57.5,69.36 34.806,0 49.066,-28.188 46.406,-69.36 H 936.484" /><path
         id="path22"
         style="fill:#231f20;fill-opacity:1;fill-rule:nonzero;stroke:none"
         d="m 1209.9,771.809 h 1.06 l 14.22,21.132 c 8.43,11.407 23.75,33.067 45.37,33.067 15.84,0 32.69,-8.692 47.5,-24.375 l -26.37,-49.903 c -11.6,5.973 -19,9.239 -33.24,9.239 -24.26,0 -48.03,-20.063 -48.03,-78.594 V 548.488 h -70.18 v 271.016 h 69.67 v -47.695" /><path
         id="path24"
         style="fill:#231f20;fill-opacity:1;fill-rule:nonzero;stroke:none"
         d="m 1333.67,900.773 c 0,20.645 16.88,41.739 40.63,41.739 24.25,0 43.26,-20.586 43.26,-41.739 0,-23.281 -16.39,-45.488 -42.25,-45.488 -24.76,0 -41.64,22.207 -41.64,45.488 z m 76.99,-81.269 V 548.488 h -70.13 v 271.016 h 70.13" /><path
         id="path26"
         style="fill:#231f20;fill-opacity:1;fill-rule:nonzero;stroke:none"
         d="m 1600.2,588.059 c 0,-14.629 1.56,-30.356 6.81,-39.571 h 74.42 c -8.46,18.985 -11.1,44.453 -11.1,66.129 v 110.551 c 0,84.57 -59.59,100.84 -108.14,100.84 -36.39,0 -68.56,-9.223 -101.31,-36.875 l 22.67,-34.145 c 18.5,16.274 39.61,27.641 69.71,27.641 22.68,0 44.28,-15.723 47.97,-40.645 l -62.27,-18.964 c -61.21,-17.872 -97.59,-47.153 -97.59,-98.672 0,-49.825 34.27,-82.344 75.43,-82.344 24.27,0 48.06,16.777 67.58,32.519 z m 1.03,117.617 c 5.27,-79.649 -31.09,-115.449 -59.06,-115.449 -16.88,0 -31.7,16.25 -31.7,40.117 0,30.879 17.44,51.465 51.72,62.344 l 39.04,12.988" /><path
         id="path28"
         style="fill:#231f20;fill-opacity:1;fill-rule:nonzero;stroke:none"
         d="m 1714.14,548.488 v 398.399 h 70.13 V 548.488 h -70.13" /><path
         id="path30"
         style="fill:#231f20;fill-opacity:1;fill-rule:nonzero;stroke:none"
         d="m 2247.33,859.074 c -17.99,9.766 -48.03,21.133 -76.56,21.133 -75.94,0 -130.78,-54.746 -130.78,-140.937 0,-89.985 60.68,-143.086 132.91,-143.086 28.51,0 54.88,8.14 74.43,18.984 L 2267.9,568 c -22.68,-13.555 -62.25,-25.996 -98.15,-25.996 -128.24,0 -208.94,86.719 -208.94,198.34 0,103.535 80.23,194.062 209.96,194.062 38.55,0 74.45,-14.101 99.72,-29.277 l -23.16,-46.055" /><path
         id="path32"
         style="fill:#231f20;fill-opacity:1;fill-rule:nonzero;stroke:none"
         d="m 2407.11,542.004 c 82.88,0 138.72,61.211 138.72,145.234 0,87.813 -67.49,138.77 -138.72,138.77 -70.72,0 -138.22,-50.957 -138.22,-138.77 0,-84.023 55.92,-145.234 138.22,-145.234 z m 0,40.098 c -50.13,0 -63.82,57.441 -63.82,105.136 0,44.981 15.8,98.653 63.82,98.653 49.07,0 64.34,-53.672 64.34,-98.653 0,-47.695 -13.16,-105.136 -64.34,-105.136" /><path
         id="path34"
         style="fill:#231f20;fill-opacity:1;fill-rule:nonzero;stroke:none"
         d="m 2576.08,548.488 v 398.399 h 70.21 V 548.488 h -70.21" /><path
         id="path36"
         style="fill:#231f20;fill-opacity:1;fill-rule:nonzero;stroke:none"
         d="m 2690.51,548.488 v 398.399 h 70.14 V 548.488 h -70.14" /><path
         id="path38"
         style="fill:#231f20;fill-opacity:1;fill-rule:nonzero;stroke:none"
         d="m 3035.67,677.512 c 5.29,80.742 -29,148.496 -111.31,148.496 -75.43,0 -134.59,-53.125 -134.59,-136.602 0,-89.457 59.63,-147.402 139.34,-147.402 30.04,0 67.5,8.672 103.41,30.332 l -20.05,37.93 c -17.39,-12.446 -44.87,-21.7 -70.71,-21.7 -43.77,0 -78.63,37.965 -77.03,88.946 z m -169.84,39.019 c -0.59,36.25 17.36,69.36 57.44,69.36 34.86,0 49.08,-28.188 46.46,-69.36 h -103.9" /><path
         id="path40"
         style="fill:#231f20;fill-opacity:1;fill-rule:nonzero;stroke:none"
         d="m 3608.72,677.512 c 5.25,80.742 -29.01,148.496 -111.31,148.496 -75.47,0 -134.55,-53.125 -134.55,-136.602 0,-89.457 59.59,-147.402 139.29,-147.402 30.08,0 67.54,8.672 103.4,30.332 l -20.04,37.93 c -17.42,-12.446 -44.84,-21.7 -70.7,-21.7 -43.81,0 -78.57,37.965 -77.03,88.946 z m -169.89,39.019 c -0.5,36.25 17.41,69.36 57.52,69.36 34.79,0 49.08,-28.188 46.43,-69.36 h -103.95" /><path
         id="path42"
         style="fill:#231f20;fill-opacity:1;fill-rule:nonzero;stroke:none"
         d="m 3333.7,819.504 h -70.18 v -33.066 h -1.03 c -14.77,24.39 -46.45,39.57 -78.64,39.57 -71.76,0 -122.4,-68.305 -122.4,-138.77 0,-86.718 45.92,-145.234 116.09,-145.234 40.12,0 67.52,22.754 84.95,45.527 h 1.03 V 551.75 c 0,-62.871 -35.86,-92.148 -82.32,-92.148 -35.86,0 -65.94,7.05 -91.76,23.3 l -13.75,-44.433 c 31.15,-16.25 71.27,-25.508 110.8,-25.508 78.63,0 147.21,39.59 147.21,159.902 z m -134.01,-36.875 c 42.23,0 63.83,-43.906 63.83,-91.059 0,-54.195 -20.06,-106.226 -67.03,-106.226 -40.61,0 -60.63,50.957 -60.63,103.535 0,52.559 18.46,93.75 63.83,93.75" /><path
         id="path44"
         style="fill:#231f20;fill-opacity:1;fill-rule:nonzero;stroke:none"
         d="M 0,385.84 H 74.9414 V 57.4414 H 232.656 V 6.48438 L 0,6.48438 V 385.84" /><path
         id="path46"
         style="fill:#231f20;fill-opacity:1;fill-rule:nonzero;stroke:none"
         d="m 644.348,245.508 c 25.031,26.015 59.949,38.496 94.945,38.496 64.953,0 96.066,-34.707 96.066,-102.988 V 6.48438 H 764.855 V 172.871 c 0,37.922 -17.222,62.852 -55.539,62.852 -36.128,0 -64.421,-23.274 -64.421,-67.715 V 6.48438 H 574.371 V 277.461 h 69.977 v -31.953" /><path
         id="path48"
         style="fill:#231f20;fill-opacity:1;fill-rule:nonzero;stroke:none"
         d="m 1085.16,6.48438 h 70.52 V 404.824 h -70.52 V 246.016 h -1.12 c -16.65,23.886 -48.83,37.988 -84.919,37.988 C 924.68,284.004 872.5,215.695 872.5,145.234 872.5,58.5352 920.793,0 993.555,0 c 43.315,0 72.175,22.7539 90.485,45.5273 h 1.12 z M 1017.97,240.586 c 44.44,0 67.19,-43.895 67.19,-91.016 0,-54.2262 -21.07,-106.2302 -70.53,-106.2302 -42.735,0 -63.829,50.9454 -63.829,103.5152 0,52.571 19.453,93.731 67.169,93.731" /><path
         id="path50"
         style="fill:#231f20;fill-opacity:1;fill-rule:nonzero;stroke:none"
         d="m 1338.93,0 c 87.16,0 146,61.25 146,145.234 0,87.774 -71.04,138.77 -146,138.77 -74.42,0 -145.49,-50.996 -145.49,-138.77 C 1193.44,61.25 1252.31,0 1338.93,0 Z m 0,40.1172 c -52.72,0 -67.21,57.4336 -67.21,105.1168 0,44.969 16.64,98.633 67.21,98.633 51.67,0 67.73,-53.664 67.73,-98.633 0,-47.6832 -13.84,-105.1168 -67.73,-105.1168" /><path
         id="path52"
         style="fill:#231f20;fill-opacity:1;fill-rule:nonzero;stroke:none"
         d="m 1593.24,245.508 c 25,26.015 59.97,38.496 94.93,38.496 64.97,0 96.09,-34.707 96.09,-102.988 V 6.48438 h -70.51 V 172.871 c 0,37.922 -17.22,62.852 -55.56,62.852 -36.06,0 -64.4,-23.274 -64.4,-67.715 V 6.48438 h -70.52 V 277.461 h 69.97 v -31.953" /><path
         id="path54"
         style="fill:#231f20;fill-opacity:1;fill-rule:nonzero;stroke:none"
         d="m 388.84,0 c 87.156,0 146.015,61.25 146.015,145.234 0,87.774 -71.085,138.77 -146.015,138.77 -74.426,0 -145.488,-50.996 -145.488,-138.77 C 243.352,61.25 302.191,0 388.84,0 Z m 0,40.1172 c -52.805,0 -67.199,57.4336 -67.199,105.1168 0,44.969 16.64,98.633 67.199,98.633 51.633,0 67.742,-53.664 67.742,-98.633 0,-47.6832 -13.922,-105.1168 -67.742,-105.1168" /></g></g></svg>